<svg viewBox="0 0 32 32" xmlns="http://www.w3.org/2000/svg">
<style>
#book{stroke:#444}
@media(prefers-color-scheme:dark){#book{stroke:#bbb}}
</style>
<path id="book" d="M 16 6 A 7.5 3 0 0 0 1 6 v 24 A 7.5 3 0 0 1 16 30 v -24 A 7.5 3 0 0 1 31 6 v 24 A 7.5 3 0 0 0 16 30" fill="none" stroke-width="2"/>
<path d="M 3 30.9 3 26.1 24 14.7 Q 24.5 14.3 24 13.9 L 10.1 8 10.1 18.1 5.5 20.6 5.5 2 Q 5.5 1 6.5 1.47 L 26.5 10.8 C 30 12.4 30 16.4 26.5 18.3 Z" fill="#048"/>
<path d="M 3 26.1 3 23.1 18.5 14.8 12.5 12.3 12.5 16.8 10.1 18.1 10.1 8 24 13.9 Q 24.5 14.3 24 14.7 Z" fill="#0bf"/>
</svg>